<svg width="58" height="58" viewBox="0 0 58 58" fill="none" xmlns="http://www.w3.org/2000/svg">
<g filter="url(#filter0_d_1_204)">
<rect x="4" width="50" height="50" rx="25" fill="#2D2D2D" fill-opacity="0.2"/>
<path d="M21.96 36L22.408 35.296L23.368 33.824L25.64 30.112C26.152 29.2587 26.5573 28.576 26.856 28.064C27.2827 27.3173 27.8053 26.368 28.424 25.216C29.4053 23.4667 30.088 22.08 30.472 21.056C30.792 20.1813 30.952 19.4133 30.952 18.752C30.952 17.6853 30.6533 16.8533 30.056 16.256C29.4587 15.6587 28.6373 15.36 27.592 15.36C25.608 15.36 23.7947 16.576 22.152 19.008C22.5573 17.1307 23.4747 15.584 24.904 14.368C26.3333 13.152 27.9653 12.544 29.8 12.544C31.2293 12.544 32.4133 13.0133 33.352 13.952C34.2907 14.8907 34.76 16.0853 34.76 17.536C34.76 18.88 34.2907 20.384 33.352 22.048C32.9893 22.6667 32.5627 23.3173 32.072 24L30.408 26.208C30.2373 26.4427 30.0027 26.752 29.704 27.136C29.5333 27.3493 29.352 27.584 29.16 27.84L26.28 31.392L25.544 32.448H29.256C30.7067 32.448 31.8587 32.2667 32.712 31.904C33.5867 31.5413 34.4613 30.8693 35.336 29.888L33.512 36H21.96Z" fill="white"/>
</g>
<defs>
<filter id="filter0_d_1_204" x="0" y="0" width="58" height="58" filterUnits="userSpaceOnUse" color-interpolation-filters="sRGB">
<feFlood flood-opacity="0" result="BackgroundImageFix"/>
<feColorMatrix in="SourceAlpha" type="matrix" values="0 0 0 0 0 0 0 0 0 0 0 0 0 0 0 0 0 0 127 0" result="hardAlpha"/>
<feOffset dy="4"/>
<feGaussianBlur stdDeviation="2"/>
<feComposite in2="hardAlpha" operator="out"/>
<feColorMatrix type="matrix" values="0 0 0 0 0 0 0 0 0 0 0 0 0 0 0 0 0 0 0.25 0"/>
<feBlend mode="normal" in2="BackgroundImageFix" result="effect1_dropShadow_1_204"/>
<feBlend mode="normal" in="SourceGraphic" in2="effect1_dropShadow_1_204" result="shape"/>
</filter>
</defs>
</svg>
