<svg width="50" height="50" viewBox="0 0 50 50" fill="none" xmlns="http://www.w3.org/2000/svg">
<rect x="0.25" y="0.25" width="49.5" height="49.5" rx="24.75" stroke="white" stroke-width="0.5"/>
<path d="M21.832 24.512V23.808C23.2827 23.808 24.488 23.328 25.448 22.368C26.4293 21.3867 26.92 20.2133 26.92 18.848C26.92 17.76 26.6 16.8853 25.96 16.224C25.3413 15.5413 24.4987 15.2 23.432 15.2C21.6613 15.2 20.072 16.2773 18.664 18.432C19.0907 16.6827 19.9333 15.264 21.192 14.176C22.472 13.088 23.9333 12.544 25.576 12.544C26.8773 12.544 27.9653 13.0133 28.84 13.952C29.7147 14.8907 30.152 16.0747 30.152 17.504C30.152 19.9147 28.872 21.7813 26.312 23.104C27.8693 23.4453 29.0747 24.128 29.928 25.152C30.8027 26.176 31.24 27.456 31.24 28.992C31.24 31.0613 30.5253 32.8213 29.096 34.272C27.6667 35.7227 25.9067 36.448 23.816 36.448C22.216 36.448 20.8827 36.032 19.816 35.2C18.7493 34.368 18.216 33.312 18.216 32.032C18.216 31.2213 18.4507 30.5493 18.92 30.016C19.3893 29.4827 19.9973 29.216 20.744 29.216C21.3413 29.216 21.8427 29.4187 22.248 29.824C22.6533 30.2293 22.856 30.7413 22.856 31.36C22.856 31.488 22.824 31.6693 22.76 31.904C22.696 32.1387 22.6107 32.416 22.504 32.736C22.2907 33.248 22.184 33.632 22.184 33.888C22.184 34.2933 22.3547 34.6347 22.696 34.912C23.0373 35.1893 23.4747 35.328 24.008 35.328C24.9893 35.328 25.832 34.8587 26.536 33.92C27.24 32.96 27.592 31.808 27.592 30.464C27.592 28.864 27.0587 27.5093 25.992 26.4C24.9253 25.2907 23.5387 24.6613 21.832 24.512Z" fill="white"/>
</svg>
